<?xml version="1.0" standalone="no"?>
<!DOCTYPE svg PUBLIC "-//W3C//DTD SVG 20010904//EN"
 "http://www.w3.org/TR/2001/REC-SVG-20010904/DTD/svg10.dtd">
<svg version="1.0" xmlns="http://www.w3.org/2000/svg"
 width="91.000000pt" height="91.000000pt" viewBox="0 0 91.000000 91.000000"
 preserveAspectRatio="xMidYMid meet">
<metadata>
Created by potrace 1.11, written by Peter Selinger 2001-2013
</metadata>
<g transform="translate(0.000000,91.000000) scale(0.100000,-0.100000)"
fill="#000000" stroke="none">
<path d="M53 642 c-43 -2 -52 -6 -49 -20 13 -70 19 -92 25 -92 4 0 15 -36 25
-80 10 -46 22 -80 29 -80 7 0 6 -4 -3 -10 -9 -6 -10 -10 -3 -10 7 0 15 -16 19
-35 7 -39 27 -49 85 -43 24 2 35 9 38 23 2 11 7 22 11 25 8 6 40 131 40 160 0
21 19 29 21 8 1 -18 15 -92 26 -138 2 -8 4 -23 5 -32 1 -9 6 -14 10 -12 4 3 8
-3 8 -14 0 -17 7 -19 57 -18 57 1 57 1 64 35 4 18 13 37 21 42 10 7 10 9 -2 9
-11 0 -12 2 -3 8 7 4 21 43 31 85 10 43 21 75 25 71 4 -4 7 -1 8 7 0 8 2 21 4
29 20 85 21 80 -21 81 -42 1 -67 -1 -73 -6 -2 -2 -6 -24 -8 -50 -3 -25 -9 -45
-13 -45 -5 0 -11 -26 -15 -58 -7 -65 -25 -106 -25 -59 0 16 -4 26 -8 23 -4 -3
-16 40 -26 95 l-18 99 -45 0 c-24 0 -50 -6 -57 -12 -7 -7 -20 -52 -30 -101 -9
-48 -23 -102 -31 -120 l-14 -32 -2 30 c-2 33 -4 51 -14 105 -4 19 -6 43 -6 53
0 9 -4 17 -10 17 -5 0 -9 10 -9 23 0 36 -12 42 -67 39z"/>
<path d="M683 644 c-13 -3 -36 -19 -53 -35 -23 -24 -30 -40 -30 -69 0 -64 15
-84 92 -119 59 -27 69 -35 66 -54 -3 -20 -8 -22 -68 -21 -38 1 -66 6 -68 13
-5 15 -19 14 -19 -1 0 -7 -4 -27 -7 -45 -6 -31 -4 -32 31 -40 21 -4 44 -6 51
-5 6 2 12 -2 12 -8 0 -5 5 -10 11 -10 5 0 7 6 3 12 -6 10 -4 10 8 0 11 -9 18
-10 23 -2 3 5 17 10 29 10 33 0 78 25 93 52 17 31 16 83 -2 117 -13 26 -67 61
-94 61 -16 0 -51 32 -51 47 0 8 10 17 23 22 27 10 89 2 81 -10 -3 -5 1 -9 9
-9 18 0 40 77 25 86 -14 9 -136 14 -165 8z"/>
</g>
</svg>
