<?xml version="1.0" standalone="no"?>
<!DOCTYPE svg PUBLIC "-//W3C//DTD SVG 20010904//EN"
 "http://www.w3.org/TR/2001/REC-SVG-20010904/DTD/svg10.dtd">
<svg version="1.0" xmlns="http://www.w3.org/2000/svg"
 width="260.000000pt" height="260.000000pt" viewBox="0 0 260.000000 260.000000"
 preserveAspectRatio="xMidYMid meet">
<metadata>
Created by potrace 1.11, written by Peter Selinger 2001-2013
</metadata>
<g transform="translate(0.000000,260.000000) scale(0.100000,-0.100000)"
fill="#000000" stroke="none">
<path d="M270 1810 l0 -410 440 0 440 0 0 410 0 410 -440 0 -440 0 0 -410z"/>
<path d="M1530 1810 l0 -410 415 0 415 0 0 410 0 410 -415 0 -415 0 0 -410z"/>
<path d="M270 690 l0 -420 440 0 440 0 0 420 0 420 -440 0 -440 0 0 -420z"/>
</g>
</svg>
